<?xml version="1.0" encoding="UTF-8" standalone="no"?>
<!-- Created with Inkscape (http://www.inkscape.org/) -->

<svg
   width="210mm"
   height="297mm"
   viewBox="0 0 210 297"
   version="1.1"
   id="svg5"
   sodipodi:docname="Reto_1.svg"
   inkscape:version="1.1.1 (3bf5ae0, 2021-09-20)"
   xmlns:inkscape="http://www.inkscape.org/namespaces/inkscape"
   xmlns:sodipodi="http://sodipodi.sourceforge.net/DTD/sodipodi-0.dtd"
   xmlns="http://www.w3.org/2000/svg"
   xmlns:svg="http://www.w3.org/2000/svg">
  <sodipodi:namedview
     id="namedview7"
     pagecolor="#ffffff"
     bordercolor="#999999"
     borderopacity="1"
     inkscape:pageshadow="0"
     inkscape:pageopacity="0"
     inkscape:pagecheckerboard="0"
     inkscape:document-units="mm"
     showgrid="false"
     showguides="true"
     inkscape:guide-bbox="true"
     inkscape:snap-global="false"
     inkscape:zoom="0.23696689"
     inkscape:cx="689.96981"
     inkscape:cy="417.77988"
     inkscape:window-width="960"
     inkscape:window-height="1043"
     inkscape:window-x="2326"
     inkscape:window-y="0"
     inkscape:window-maximized="0"
     inkscape:current-layer="layer1" />
  <defs
     id="defs2" />
  <g
     inkscape:label="Layer 1"
     inkscape:groupmode="layer"
     id="layer1">
    <ellipse
       style="fill:none;stroke:#000000;stroke-width:1.5;stroke-miterlimit:4;stroke-dasharray:none;stroke-opacity:1"
       id="path1913"
       cx="80.401169"
       cy="117.74058"
       rx="4.8127425e-13"
       ry="6.033267" />
    <path
       style="fill:#ffff00;fill-opacity:1;stroke:#000000;stroke-width:1.5;stroke-miterlimit:4;stroke-dasharray:none;stroke-opacity:1"
       d="m 52.852006,43.146945 a 5.1555038,5.367991 50.140124 0 0 -0.816279,7.398142 5.1555038,5.367991 50.140124 0 0 4.417194,1.766919 l 29.551368,35.39338 4.823572,-4.027399 -29.580843,-35.428686 a 5.1555038,5.367991 50.140124 0 0 -0.969956,-4.585237 5.1555038,5.367991 50.140124 0 0 -7.425056,-0.517119 z"
       id="rect2824" />
    <path
       style="fill:#ffff00;fill-opacity:1;stroke:#000000;stroke-width:1.5;stroke-miterlimit:4;stroke-dasharray:none;stroke-opacity:1"
       d="m 162.05965,43.198083 a 5.367991,5.1555038 39.269968 0 0 -7.41933,0.593545 5.367991,5.1555038 39.269968 0 0 -0.90221,4.671145 l -29.18542,35.695755 4.86479,3.977521 29.21451,-35.731354 a 5.367991,5.1555038 39.269968 0 0 4.32007,-1.817251 5.367991,5.1555038 39.269968 0 0 -0.89241,-7.389357 z"
       id="rect2824-3" />
    <path
       style="fill:#ff00ff;stroke:#000000;stroke-width:5.66929;stroke-miterlimit:4;stroke-dasharray:none;stroke-opacity:1"
       d="m 210.78516,306.1543 v 59.875 h -73.63477 v 78.74609 h 73.63477 v 211.16992 h 391.1582 V 444.77539 h 75.09766 V 366.0293 h -75.09766 v -59.875 z"
       id="rect956"
       transform="scale(0.26458333)" />
    <rect
       style="fill:#ffffff;stroke:#000000;stroke-width:1.5;stroke-miterlimit:4;stroke-dasharray:none;stroke-opacity:1"
       id="rect1803"
       width="57.198803"
       height="15.845599"
       x="80.401176"
       y="145.91032" />
    <ellipse
       style="fill:#ffffff;stroke:#000000;stroke-width:1.37735;stroke-miterlimit:4;stroke-dasharray:none;stroke-opacity:1"
       id="path1939"
       ry="12.148718"
       rx="12.075588"
       cy="108.77077"
       cx="80.233505" />
    <ellipse
       style="fill:#ffffff;stroke:#000000;stroke-width:1.37735;stroke-miterlimit:4;stroke-dasharray:none;stroke-opacity:1"
       id="path1939-3"
       ry="12.148718"
       rx="12.075588"
       cy="109.04081"
       cx="137.6219" />
    <path
       style="fill:none;stroke:#000000;stroke-width:1.065;stroke-linecap:butt;stroke-linejoin:miter;stroke-opacity:1;stroke-miterlimit:4;stroke-dasharray:none"
       d="m 86.400049,145.9607 v 15.76121 l -0.295635,0.007"
       id="path2383" />
    <path
       style="fill:none;stroke:#000000;stroke-width:1.065;stroke-linecap:butt;stroke-linejoin:miter;stroke-opacity:1;stroke-miterlimit:4;stroke-dasharray:none"
       d="M 91.220183,146.38554 V 161.9743"
       id="path2385" />
    <path
       style="fill:none;stroke:#000000;stroke-width:1.065;stroke-linecap:butt;stroke-linejoin:miter;stroke-opacity:1;stroke-miterlimit:4;stroke-dasharray:none"
       d="m 96.537766,146.63486 v 15.36749"
       id="path2387" />
    <path
       style="fill:none;stroke:#000000;stroke-width:1.065;stroke-linecap:butt;stroke-linejoin:miter;stroke-opacity:1;stroke-miterlimit:4;stroke-dasharray:none"
       d="m 101.86096,146.35479 v 15.32726"
       id="path2389" />
    <path
       style="fill:none;stroke:#000000;stroke-width:1.065;stroke-linecap:butt;stroke-linejoin:miter;stroke-opacity:1;stroke-miterlimit:4;stroke-dasharray:none"
       d="m 107.49406,146.48468 v 14.96123"
       id="path2391" />
    <path
       style="fill:none;stroke:#000000;stroke-width:1.065;stroke-linecap:butt;stroke-linejoin:miter;stroke-opacity:1;stroke-miterlimit:4;stroke-dasharray:none"
       d="m 112.68628,146.27046 v 15.36266"
       id="path2393" />
    <path
       style="fill:none;stroke:#000000;stroke-width:1.065;stroke-linecap:butt;stroke-linejoin:miter;stroke-opacity:1;stroke-miterlimit:4;stroke-dasharray:none"
       d="M 117.85057,146.25488 V 161.2771"
       id="path2395" />
    <path
       style="fill:none;stroke:#000000;stroke-width:1.065;stroke-linecap:butt;stroke-linejoin:miter;stroke-opacity:1;stroke-miterlimit:4;stroke-dasharray:none"
       d="m 122.76347,145.92899 v 15.30273"
       id="path2397" />
    <path
       style="fill:none;stroke:#000000;stroke-width:1.065;stroke-linecap:butt;stroke-linejoin:miter;stroke-opacity:1;stroke-miterlimit:4;stroke-dasharray:none"
       d="m 127.39972,146.59215 v 14.881"
       id="path2399" />
    <path
       style="fill:none;stroke:#000000;stroke-width:1.065;stroke-linecap:butt;stroke-linejoin:miter;stroke-opacity:1;stroke-miterlimit:4;stroke-dasharray:none"
       d="m 132.11577,146.41818 v 15.31384"
       id="path2401" />
    <path
       style="fill:#000000;stroke:#000000;stroke-width:1.5;stroke-miterlimit:4;stroke-dasharray:none;stroke-opacity:1;fill-opacity:1"
       id="path2553"
       sodipodi:type="arc"
       sodipodi:cx="76.606575"
       sodipodi:cy="113.35468"
       sodipodi:rx="5.8001266"
       sodipodi:ry="5.9727306"
       sodipodi:start="0"
       sodipodi:end="6.2401103"
       sodipodi:arc-type="slice"
       d="m 82.406702,113.35468 a 5.8001266,5.9727306 0 0 1 -5.737668,5.97239 5.8001266,5.9727306 0 0 1 -5.86124,-5.84376 5.8001266,5.9727306 0 0 1 5.611433,-6.09824 5.8001266,5.9727306 0 0 1 5.982094,5.71242 l -5.794746,0.25719 z" />
    <path
       style="fill:#000000;fill-opacity:1;stroke:#000000;stroke-width:1.5;stroke-miterlimit:4;stroke-dasharray:none;stroke-opacity:1"
       id="path2553-6"
       sodipodi:type="arc"
       sodipodi:cx="134.21883"
       sodipodi:cy="113.26656"
       sodipodi:rx="5.8001266"
       sodipodi:ry="5.9727306"
       sodipodi:start="0"
       sodipodi:end="6.2401103"
       sodipodi:arc-type="slice"
       d="m 140.01895,113.26656 a 5.8001266,5.9727306 0 0 1 -5.73766,5.97239 5.8001266,5.9727306 0 0 1 -5.86125,-5.84376 5.8001266,5.9727306 0 0 1 5.61144,-6.09824 5.8001266,5.9727306 0 0 1 5.98209,5.71242 l -5.79474,0.25719 z" />
  </g>
</svg>
